<?xml version="1.0" encoding="UTF-8"?>
<svg width="30px" height="28px" viewBox="0 0 30 28" version="1.1" xmlns="http://www.w3.org/2000/svg" xmlns:xlink="http://www.w3.org/1999/xlink">
    <!-- Generator: Sketch 56.3 (81716) - https://sketch.com -->
    <title>需求沟通</title>
    <desc>Created with Sketch.</desc>
    <g id="Final_0320" stroke="none" stroke-width="1" fill="none" fill-rule="evenodd">
        <g id="图鹰lp修改复制" transform="translate(-198.000000, -3296.000000)" fill="#5F9BF1" fill-rule="nonzero">
            <g id="第五页" transform="translate(0.000000, 3062.000000)">
                <g id="平台自主训练流程" transform="translate(141.000000, 126.000000)">
                    <g id="编组-3" transform="translate(0.000000, 76.000000)">
                        <g id="icon" transform="translate(56.000000, 30.000000)">
                            <g id="需求沟通">
                                <path d="M27.130793,21.5980781 C27.130793,21.7574863 27.0805898,21.9002598 27.0101992,22.0314785 C27.0045879,22.0421367 27.0116934,22.0542227 27.0057168,22.0646816 C26.9857617,22.0994121 26.9530898,22.1201309 26.9293828,22.1512754 C26.8899707,22.2031719 26.8517207,22.2522461 26.8026465,22.2948125 C26.7570918,22.3343906 26.7082168,22.363709 26.6566855,22.3933594 C26.6051543,22.423209 26.5555156,22.4508672 26.4984063,22.4706562 C26.4370137,22.4917734 26.3752227,22.5003066 26.3106426,22.508541 C26.2718281,22.5133887 26.2376621,22.5312852 26.1975195,22.5312852 C26.1778965,22.5312852 26.1616934,22.5213906 26.1424687,22.5200625 C26.0803125,22.5165098 26.0215098,22.4997422 25.9603164,22.4833066 C25.8990898,22.4668711 25.8397227,22.4521621 25.7841074,22.4241719 C25.7669414,22.4155723 25.747916,22.4159707 25.730916,22.4062422 L19.4817891,18.7983574 L14.0654297,18.7983574 C12.003748,18.7983574 10.3324688,17.1271113 10.3324688,15.0653965 L10.3324688,5.73296094 C10.3324688,3.6712793 12.0037148,2 14.0654297,2 L27.1308262,2 C29.1925078,2 30.8637871,3.67124609 30.8637871,5.73296094 L30.8637871,15.0653633 C30.8637871,17.1270781 29.192541,18.7983574 27.1308262,18.7983574 L27.130793,21.5980781 Z M27.130793,3.86644727 L14.0653965,3.86644727 C13.0345391,3.86644727 12.198916,4.70207031 12.198916,5.73292773 L12.198916,15.0653301 C12.198916,16.0961875 13.0345391,16.9318105 14.0653965,16.9318105 L19.776832,16.9318105 L19.7949277,16.9424687 C19.9330527,16.9515996 20.0706133,16.9829766 20.1984785,17.0568867 L25.2643457,19.9816504 L25.2643457,17.8650508 C25.2643457,17.3497383 25.6822402,16.9318105 26.1975859,16.9318105 L27.1308262,16.9318105 C28.1616836,16.9318105 28.9973066,16.0961875 28.9973066,15.0653301 L28.9973066,5.73292773 C28.9973066,4.70207031 28.1616504,3.86644727 27.130793,3.86644727 Z M25.2643125,10.3991289 C25.2643125,9.88381641 25.682207,9.46588867 26.1975527,9.46588867 C26.7128984,9.46588867 27.130793,9.8837832 27.130793,10.3991289 C27.130793,10.9144746 26.7128984,11.3323691 26.1975527,11.3323691 C25.6822402,11.3323691 25.2643125,10.9144746 25.2643125,10.3991289 Z M19.6648711,10.3991289 C19.6648711,9.88381641 20.0827656,9.46588867 20.5981113,9.46588867 C21.1134238,9.46588867 21.5313516,9.8837832 21.5313516,10.3991289 C21.5313516,10.9144746 21.1134238,11.3323691 20.5981113,11.3323691 C20.0827988,11.3323691 19.6648711,10.9144746 19.6648711,10.3991289 Z M14.0653965,10.3991289 C14.0653965,9.88381641 14.483291,9.46588867 14.9986367,9.46588867 C15.5139824,9.46588867 15.931877,9.8837832 15.931877,10.3991289 C15.931877,10.9144746 15.5139824,11.3323691 14.9986367,11.3323691 C14.4833242,11.3323691 14.0653965,10.9144746 14.0653965,10.3991289 Z M2.86651367,22.531252 C2.86651367,23.5621094 3.70213672,24.3977324 4.73299414,24.3977324 L5.66623438,24.3977324 C6.18154688,24.3977324 6.59947461,24.815627 6.59947461,25.3309727 L6.59947461,27.4475723 L11.6653418,24.5228086 C11.7931738,24.4488652 11.9307676,24.4175215 12.0688926,24.4083906 L12.0869883,24.3977324 L17.7984238,24.3977324 C18.8292813,24.3977324 19.6649043,23.5621094 19.6649043,22.531252 L21.5313848,22.531252 C21.5313848,24.5929336 19.8601387,26.2642129 17.7984238,26.2642129 L12.3820312,26.2642129 L6.13283789,29.8721641 C6.11583789,29.8818926 6.0968125,29.8814941 6.07964648,29.8900937 C6.02403125,29.918084 5.96466406,29.9328262 5.9034375,29.9492285 C5.84221094,29.9656641 5.7834082,29.9824316 5.72128516,29.9859844 C5.70206055,29.9872793 5.68582422,29.997207 5.66623437,29.997207 C5.626125,29.997207 5.59192578,29.9792773 5.55311133,29.9744629 C5.48853125,29.9662617 5.42677344,29.9576621 5.36534766,29.9365781 C5.30823828,29.9167891 5.25859961,29.8891641 5.20706836,29.8592812 C5.15553711,29.8296309 5.10666211,29.8002793 5.06110742,29.7607344 C5.0120332,29.718168 4.97375,29.6690937 4.93437109,29.6171973 C4.91069727,29.5860527 4.87799219,29.5653008 4.85803711,29.5305703 C4.85206055,29.5201113 4.85916602,29.507959 4.85355469,29.4973672 C4.78319727,29.3661484 4.73296094,29.223375 4.73296094,29.0639668 L4.73296094,26.2642129 C2.6712793,26.2642129 1,24.5929668 1,22.531252 L1,13.19875 C1,11.1370684 2.67124609,9.46578906 4.73296094,9.46578906 L8.46592187,9.46578906 L8.46592187,11.3322695 L4.73302734,11.3322695 C3.70216992,11.3322695 2.86654687,12.1678926 2.86654687,13.19875 L2.86651367,22.531252 Z" id="Shape"></path>
                            </g>
                        </g>
                    </g>
                </g>
            </g>
        </g>
    </g>
</svg>